<?xml version="1.0" encoding="utf-8"?>
<!-- Generator: Adobe Illustrator 28.2.0, SVG Export Plug-In . SVG Version: 6.00 Build 0)  -->
<svg version="1.1" id="Layer_1" xmlns="http://www.w3.org/2000/svg" xmlns:xlink="http://www.w3.org/1999/xlink" x="0px" y="0px"
	 viewBox="0 0 134 22" style="enable-background:new 0 0 134 22;" xml:space="preserve">
<style type="text/css">
	.st0{fill:#084C34;}
	.st1{fill:#16B372;}
	.st2{font-family:'Lufga-SemiBold';}
	.st3{font-size:20px;}
</style>
<path class="st0" d="M9.5,2.1l15-1.8c1.4-0.2,2.6,0.8,2.8,2.2l0.9,7.5c0.2,1.4-0.8,2.6-2.2,2.8l-15,1.9c-1.4,0.2-2.6-0.8-2.8-2.2
	L7.3,5C7.1,3.6,8.1,2.3,9.5,2.1z"/>
<path class="st1" d="M15.2,7.9l12.7,1.7c1.4,0.2,2.4,1.5,2.2,2.8l-0.8,6.1c-0.2,1.4-1.5,2.4-2.8,2.2L13.7,19
	c-1.4-0.2-2.4-1.5-2.2-2.8l0.8-6.1C12.5,8.7,13.8,7.7,15.2,7.9z"/>
<text transform="matrix(1 0 0 1 36.082 17.1822)" class="st0 st2 st3">Salesgirl</text>
</svg>
