<?xml version="1.0" encoding="utf-8"?>
<!-- Generator: Adobe Illustrator 28.2.0, SVG Export Plug-In . SVG Version: 6.00 Build 0)  -->
<svg version="1.1" id="Layer_1" xmlns="http://www.w3.org/2000/svg" xmlns:xlink="http://www.w3.org/1999/xlink" x="0px" y="0px"
	 viewBox="0 0 134 22" style="enable-background:new 0 0 134 22;" xml:space="preserve">
<style type="text/css">
	.st0{fill:#084C34;}
	.st1{fill:#16B372;}
	.st2{enable-background:new    ;}
</style>
<path class="st0" d="M9.5,2.1l15-1.8c1.4-0.2,2.6,0.8,2.8,2.2l0.9,7.5c0.2,1.4-0.8,2.6-2.2,2.8l-15,1.9c-1.4,0.2-2.6-0.8-2.8-2.2
	L7.3,5C7.1,3.6,8.1,2.3,9.5,2.1z"/>
<path class="st1" d="M15.2,7.9l12.7,1.7c1.4,0.2,2.4,1.5,2.2,2.8l-0.8,6.1c-0.2,1.4-1.5,2.4-2.8,2.2L13.7,19
	c-1.4-0.2-2.4-1.5-2.2-2.8l0.8-6.1C12.5,8.7,13.8,7.7,15.2,7.9z"/>
<g class="st2">
	<path class="st0" d="M40.8,17.4c-1.7,0-3.1-0.5-4.3-1.6l1.3-1.7c0.9,0.8,1.9,1.1,3,1.1c0.5,0,1-0.1,1.3-0.3s0.5-0.4,0.5-0.7
		c0-0.2,0-0.3-0.1-0.4s-0.2-0.2-0.5-0.3s-0.4-0.2-0.6-0.2s-0.5-0.1-0.8-0.2C40.3,13.1,40.2,13,40,13s-0.3-0.1-0.6-0.2
		s-0.4-0.1-0.6-0.2s-0.3-0.1-0.5-0.2s-0.4-0.2-0.5-0.3s-0.3-0.2-0.4-0.4s-0.3-0.3-0.3-0.5s-0.1-0.4-0.2-0.6s-0.1-0.5-0.1-0.7
		c0-0.7,0.2-1.3,0.6-1.8s0.9-0.9,1.5-1.1s1.3-0.3,2.1-0.3c1.5,0,2.8,0.4,4,1.3l-1.3,1.7c-0.8-0.6-1.7-0.9-2.6-0.9
		c-0.5,0-0.9,0.1-1.2,0.2s-0.4,0.4-0.4,0.7c0,0.2,0,0.3,0.1,0.4s0.2,0.2,0.4,0.3s0.4,0.2,0.6,0.2s0.5,0.1,0.8,0.2
		c0.3,0.1,0.5,0.1,0.7,0.2s0.4,0.1,0.7,0.2s0.5,0.2,0.7,0.3s0.4,0.2,0.6,0.4c0.2,0.2,0.4,0.3,0.5,0.5s0.2,0.4,0.3,0.7
		s0.1,0.6,0.1,0.9c0,0.7-0.2,1.3-0.6,1.8s-0.9,0.9-1.6,1.1S41.7,17.4,40.8,17.4z"/>
	<path class="st0" d="M54.7,7h2.6v10.2h-2.6V16c-0.9,1-2,1.5-3.3,1.5c-1.4,0-2.6-0.5-3.6-1.5s-1.4-2.3-1.4-3.8
		c0-1.5,0.5-2.8,1.4-3.8s2.1-1.5,3.6-1.5c1.3,0,2.4,0.5,3.3,1.5V7z M51.8,14.9c0.8,0,1.5-0.3,2-0.8s0.8-1.2,0.8-2
		c0-0.8-0.3-1.5-0.8-2s-1.2-0.8-2-0.8c-0.8,0-1.5,0.3-2,0.8s-0.8,1.2-0.8,2c0,0.8,0.3,1.5,0.8,2S51,14.9,51.8,14.9z"/>
	<path class="st0" d="M59.7,17.2V2.8h2.6v14.4H59.7z"/>
	<path class="st0" d="M75,12.1c0,0.3,0,0.6-0.1,0.9H67c0.2,0.6,0.5,1.2,1,1.5c0.5,0.4,1.1,0.6,1.9,0.6c0.6,0,1.1-0.1,1.6-0.4
		c0.5-0.2,0.9-0.5,1.2-0.9l1.7,1.5c-0.5,0.6-1.2,1.1-2,1.5c-0.8,0.4-1.7,0.5-2.6,0.5c-1.1,0-2-0.2-2.9-0.7s-1.5-1.1-2-1.9
		S64.2,13,64.2,12c0-1,0.2-1.9,0.7-2.7s1.1-1.4,2-1.9s1.7-0.7,2.8-0.7c1.5,0,2.8,0.5,3.8,1.5C74.5,9.3,75,10.6,75,12.1z M71.2,9.6
		c-0.5-0.4-1-0.6-1.7-0.6c-0.6,0-1.2,0.2-1.7,0.6s-0.8,0.9-0.9,1.5h5.2C72,10.5,71.7,10,71.2,9.6z"/>
	<path class="st0" d="M80.3,17.4c-1.7,0-3.1-0.5-4.3-1.6l1.3-1.7c0.9,0.8,1.9,1.1,3,1.1c0.5,0,1-0.1,1.3-0.3
		c0.3-0.2,0.5-0.4,0.5-0.7c0-0.2,0-0.3-0.1-0.4c-0.1-0.1-0.2-0.2-0.5-0.3c-0.2-0.1-0.4-0.2-0.6-0.2c-0.2-0.1-0.5-0.1-0.8-0.2
		c-0.2-0.1-0.4-0.1-0.6-0.1s-0.3-0.1-0.6-0.2c-0.2-0.1-0.4-0.1-0.6-0.2s-0.3-0.1-0.5-0.2c-0.2-0.1-0.4-0.2-0.5-0.3s-0.3-0.2-0.4-0.4
		c-0.1-0.1-0.3-0.3-0.3-0.5c-0.1-0.2-0.1-0.4-0.2-0.6c-0.1-0.2-0.1-0.5-0.1-0.7c0-0.7,0.2-1.3,0.6-1.8c0.4-0.5,0.9-0.9,1.5-1.1
		s1.3-0.3,2.1-0.3c1.5,0,2.8,0.4,4,1.3l-1.3,1.7c-0.8-0.6-1.7-0.9-2.6-0.9c-0.5,0-0.9,0.1-1.2,0.2c-0.3,0.1-0.4,0.4-0.4,0.7
		c0,0.2,0,0.3,0.1,0.4c0.1,0.1,0.2,0.2,0.4,0.3c0.2,0.1,0.4,0.2,0.6,0.2s0.5,0.1,0.8,0.2c0.3,0.1,0.5,0.1,0.7,0.2
		c0.2,0,0.4,0.1,0.7,0.2s0.5,0.2,0.7,0.3s0.4,0.2,0.6,0.4c0.2,0.2,0.4,0.3,0.5,0.5c0.1,0.2,0.2,0.4,0.3,0.7s0.1,0.6,0.1,0.9
		c0,0.7-0.2,1.3-0.6,1.8s-0.9,0.9-1.6,1.1C81.9,17.3,81.1,17.4,80.3,17.4z"/>
	<path class="st0" d="M92.9,17.2c1,0,1.9,0.3,2.5,0.8s1.1,1.3,1.3,2.2L94,20.9c0-0.4-0.2-0.7-0.5-0.9s-0.7-0.3-1.1-0.3H89
		c-1,0-1.7-0.3-2.3-0.8s-0.9-1.2-0.9-2c0-0.5,0.1-1,0.4-1.5c0.2-0.5,0.6-0.8,1-1.1c-0.9-0.8-1.4-1.9-1.4-3.2c0-1.3,0.5-2.4,1.4-3.2
		s2-1.3,3.4-1.3c0.8,0,1.5,0.2,2.2,0.5c0.1-0.6,0.5-1,0.9-1.3c0.5-0.3,1-0.5,1.7-0.5h0.8v2.4h-0.7c-0.3,0-0.5,0.1-0.7,0.2
		c-0.2,0.1-0.3,0.3-0.4,0.5c0.6,0.8,0.9,1.6,0.9,2.6c0,1.3-0.5,2.3-1.4,3.2s-2.1,1.3-3.4,1.3c-0.6,0-1.1-0.1-1.7-0.3
		c-0.3,0.2-0.5,0.5-0.5,0.9c0,0.2,0.1,0.5,0.3,0.6c0.2,0.2,0.5,0.2,0.8,0.2H92.9z M90.7,9.2c-0.6,0-1.1,0.2-1.5,0.6
		s-0.6,0.9-0.6,1.4s0.2,1.1,0.6,1.4s0.9,0.6,1.5,0.6c0.6,0,1.1-0.2,1.5-0.6c0.4-0.4,0.6-0.9,0.6-1.4s-0.2-1.1-0.6-1.4
		C91.8,9.4,91.3,9.2,90.7,9.2z"/>
	<path class="st0" d="M100.1,5c-0.3,0.3-0.7,0.5-1.2,0.5c-0.5,0-0.9-0.2-1.2-0.5c-0.3-0.3-0.5-0.7-0.5-1.2s0.2-0.8,0.5-1.2
		c0.3-0.3,0.7-0.5,1.2-0.5c0.5,0,0.9,0.2,1.2,0.5c0.3,0.3,0.5,0.7,0.5,1.2S100.5,4.7,100.1,5z M97.7,17.2V7h2.6v10.2H97.7z"/>
	<path class="st0" d="M108.3,6.8h0.4v2.7h-0.4c-0.9,0-1.6,0.3-2.2,0.8s-0.8,1.2-0.8,2.1v4.8h-2.6V7h2.6v1.3
		C106.1,7.3,107.1,6.8,108.3,6.8z"/>
	<path class="st0" d="M110.3,17.2V2.8h2.6v14.4H110.3z"/>
</g>
</svg>
